<svg width="25" height="24" viewBox="0 0 25 24" fill="none" xmlns="http://www.w3.org/2000/svg">
<path d="M24.6553 18.8975C24.9933 18.8977 25.0556 19.5591 24.7285 19.6768L18.2666 21.9961H18.2295C18.1244 23.1258 17.4239 23.9998 16.5723 24H8.38282C7.5844 23.9997 6.91851 23.231 6.75196 22.2041L6.72559 21.9961H6.64551L0.21485 19.6768C-0.111461 19.5585 -0.0493232 18.8982 0.288093 18.8975H24.6553Z" fill="#CD9317"/>
<path d="M10.0361 1.22949L10.6104 2.91602L9.76758 3.2041C9.75122 3.21121 9.72181 3.22502 9.68458 3.24512C9.60391 3.28873 9.48789 3.36108 9.36719 3.4707C9.13499 3.68181 8.86258 4.04712 8.79005 4.6748C8.69463 5.50322 8.8648 5.91633 9.05274 6.16504C9.27056 6.45301 9.61624 6.66702 10.1524 6.9248C10.6236 7.15137 11.3321 7.44425 11.8799 7.8916C12.4963 8.39501 12.9474 9.1055 13.0166 10.1426C13.2093 13.0359 11.5821 14.7119 10.0088 15.6084C9.23329 16.0502 8.45668 16.3157 7.88087 16.4707C7.59105 16.5487 7.34652 16.6004 7.17188 16.6328C7.08454 16.649 7.07384 16.6603 7.02344 16.668C6.9766 16.7308 6.91767 16.6908 6.91309 16.6875C6.91317 16.7333 6.92805 16.6875 6.80469 16.6875L6.6963 16.7334H6.542L5.99122 16.79L6.542 16.2217L6.80469 16.0801L7.02344 15.9424C7.15828 15.9174 7.32294 15.7358 7.56055 15.6719C8.04047 15.5427 8.66275 15.2537 9.26758 14.9092C10.4795 13.8171 11.3718 12.2628 11.2383 10.2607C11.2046 9.7558 11.0193 9.48905 10.7529 9.27148C10.418 8.99799 9.9968 8.82545 9.38087 8.5293C8.82994 8.26439 8.1303 7.8977 7.63184 7.23828C7.10383 6.5395 6.88704 5.63676 7.02149 4.4707C7.15001 3.35684 7.66429 2.61435 8.16895 2.15527C8.41612 1.93057 8.65683 1.77653 8.83985 1.67773C8.93127 1.62841 9.01018 1.59117 9.07032 1.56543C9.10033 1.55261 9.12708 1.54197 9.14747 1.53418C9.15741 1.53039 9.1664 1.52709 9.17383 1.52441L9.1836 1.52148L9.18751 1.51953H9.19141L10.0361 1.22949Z" fill="#CD9317"/>
<path d="M16.4854 0L16.0879 0.693359L16.1826 0.876953C15.7305 0.950376 16.1314 0.914754 16.0879 0.951172C16.0006 1.02418 15.8707 1.14594 15.7305 1.32227C15.4535 1.67093 15.115 2.84844 14.9902 3.72168C14.8748 4.53092 15.4824 5.60414 15.7305 6.07422C15.9977 6.58048 16.404 7.01177 16.9209 7.54297C17.9231 8.5729 19.2555 9.88033 19.0469 12.3213C18.8698 14.3911 17.6279 15.5138 16.4854 16.0801C15.9268 16.3568 15.3866 16.5058 14.9902 16.5869C14.7903 16.6278 14.6202 16.6536 14.499 16.668C14.4391 16.675 14.3895 16.6786 14.3535 16.6816C14.3358 16.6831 14.3208 16.6848 14.3096 16.6855C14.3039 16.6859 14.294 16.6875 14.294 16.6875H14.2861L13.3955 16.7334L13.3027 14.9551L14.1914 14.9092C14.1914 14.9092 14.1976 14.9079 14.2051 14.9072C14.2221 14.9058 14.2512 14.9021 14.29 14.8975C14.3685 14.8882 14.4873 14.8733 14.6318 14.8438C14.9251 14.7838 15.3109 14.6739 15.6953 14.4834C16.441 14.1138 17.162 13.4591 17.2725 12.1699C17.4059 10.6086 16.6613 9.83202 15.6436 8.78613C15.1504 8.27933 14.5605 7.67307 14.1553 6.90527C13.7311 6.10139 13.525 5.15656 13.6934 3.97754C13.8677 2.75751 14.3408 1.89103 14.793 1.32227C15.0172 1.0403 15.2339 0.833425 15.4014 0.693359C15.485 0.623447 15.5573 0.569982 15.6123 0.53125C15.6396 0.511992 15.6631 0.495458 15.6816 0.483398C15.6908 0.477476 15.7003 0.471995 15.707 0.467773L15.7149 0.461914L15.7227 0.458008L16.4854 0Z" fill="#CD9317"/>
</svg>
